<svg width="75" height="32" viewBox="0 0 75 32" fill="none" xmlns="http://www.w3.org/2000/svg">
<path d="M17.0911 0.129107C15.8888 0.472729 15.1047 1.30937 14.8882 2.48964C14.6194 3.93135 15.4781 5.29837 16.7849 5.50006C17.3225 5.58223 17.905 5.49259 18.2261 5.27596C18.5322 5.0668 18.8533 4.46173 18.8533 4.10316C18.8459 3.23664 17.9871 2.54193 17.1956 2.75856C16.7401 2.87808 16.3145 3.32628 16.3145 3.67737C16.3145 4.00605 16.2099 3.97617 16.0531 3.5952C15.8365 3.08724 15.956 2.40747 16.3443 1.8995C16.643 1.51106 17.3524 1.18238 17.9125 1.18238C19.0475 1.18238 20.0033 2.1759 20.1079 3.46074C20.2124 4.79788 19.615 5.48512 17.8378 6.08272C17.0164 6.35911 16.5758 6.54587 16.2398 6.78491C16.1352 6.85961 15.8515 6.97166 15.6051 7.03889C12.9467 7.79336 10.8409 9.54882 9.66854 11.984C9.03381 13.3062 8.72019 14.5986 8.64551 16.2494L8.60071 17.3177H10.124H11.6474L11.6548 16.2868C11.6698 14.7554 11.8565 13.8441 12.3941 12.7236C12.9691 11.5508 13.895 10.617 15.0823 10.0269C16.1726 9.48906 16.7326 9.36954 18.1813 9.37701C19.3014 9.37701 19.4731 9.39195 20.0705 9.57123C21.2952 9.94473 22.1987 10.5274 22.9604 11.4387C23.6324 12.238 24.2149 13.493 24.409 14.5612L24.4538 14.8301L23.1695 14.875C22.4601 14.9048 20.4514 14.9272 18.704 14.9272C16.7177 14.9272 15.4258 14.9571 15.2466 15.0094C14.9255 15.0991 14.4924 15.4501 14.3356 15.7489C13.8577 16.6678 14.4402 17.7957 15.4706 17.9601C15.8589 18.0198 16.3369 17.8854 16.6355 17.6239L16.8745 17.4148L21.7507 17.3699L26.6343 17.3251L26.933 17.1533C27.4408 16.8695 27.5304 16.608 27.493 15.5995C27.396 13.2091 26.4476 11.0204 24.7899 9.3546C23.4308 7.99505 21.8627 7.19576 19.8689 6.85961L19.1296 6.74009L19.5702 6.4861C20.1601 6.15742 20.8023 5.48512 21.0861 4.90246C22.0568 2.93037 20.9442 0.666948 18.7189 0.106697C18.1215 -0.0427036 17.6735 -0.0352345 17.0911 0.129107Z" fill="#EFE9E4"/>
<path d="M2.61164 6.75506C1.20778 6.97169 0.334106 7.76352 0.334106 8.82426C0.334106 9.16041 0.505855 9.59368 0.729875 9.83272C1.20032 10.3407 2.07399 10.4527 2.65644 10.0867C2.83566 9.96718 3.02981 9.78043 3.08955 9.67585C3.21649 9.43681 3.3285 9.42187 3.51519 9.63103C3.6496 9.78043 3.65707 10.0493 3.6944 17.6837C3.73174 26.2518 3.70934 25.7514 4.14991 26.0128C4.29926 26.1024 4.54568 26.1323 5.15053 26.1323C6.05408 26.1323 6.3005 26.0427 6.50958 25.6617C6.63653 25.4376 6.644 24.9819 6.68133 19.6334C6.72614 13.9935 6.7336 13.8292 6.89042 13.2316C7.32352 11.5807 8.18973 10.4154 9.39197 9.84766C9.63839 9.72814 10.0566 9.41439 10.3851 9.10065C10.6988 8.80932 11.2065 8.40594 11.5202 8.20425C11.8338 8.00256 12.1549 7.78593 12.2296 7.72617C12.4088 7.56183 12.3938 7.21074 12.1997 7.03893C12.0578 6.91194 11.9234 6.897 11.0945 6.90446C10.2955 6.91194 10.064 6.94181 9.55625 7.10616C8.31668 7.51701 7.41313 8.23413 6.59919 9.47416C6.47971 9.65344 6.47971 9.64597 6.35277 9.07824C6.12128 8.03991 5.38948 7.22568 4.4038 6.897C4.03043 6.77 3.02981 6.6953 2.61164 6.75506Z" fill="#B99D84"/>
<path d="M46.6841 6.86707C45.8403 7.03889 45.0339 7.5842 44.653 8.23409C44.556 8.4059 44.4215 8.74952 44.3469 9.0035L44.2199 9.46665L43.7794 9.06326C42.6219 7.99505 41.0911 7.26299 39.3587 6.96419C38.8435 6.87455 38.3581 6.85213 37.3351 6.88202C36.1478 6.9119 35.8864 6.94178 35.1098 7.14347C31.5927 8.06228 29.0837 10.759 28.5236 14.2101C27.8814 18.1842 29.7931 21.964 33.2952 23.6672C36.7003 25.3255 41.0911 24.8176 43.6524 22.4869L44.1901 21.9939L44.1453 23.2937C44.1229 24.2872 44.0706 24.7429 43.9511 25.1985C43.3911 27.3424 41.9125 28.7169 39.5902 29.2473C38.8061 29.4266 36.663 29.4266 35.8117 29.2473C34.4228 28.9485 33.355 28.4106 32.3992 27.5292C31.6972 26.8793 31.3463 26.7075 30.7937 26.7448C29.92 26.8046 29.3973 27.5591 29.5989 28.4629C29.6586 28.7244 29.7707 28.8738 30.1739 29.2548C31.5404 30.5321 33.5193 31.4883 35.5429 31.8543C36.6107 32.0486 38.8509 32.0486 39.8739 31.8543C43.8839 31.1148 46.3108 28.7842 46.9679 25.0491C47.0725 24.4665 47.0874 23.4356 47.0799 17.3177C47.0799 13.4332 47.1023 10.1464 47.1247 10.012C47.1621 9.81774 47.1994 9.77292 47.2965 9.81774C47.5802 9.93726 48.2598 9.93726 48.5136 9.81774C49.7308 9.23507 49.7009 7.63649 48.4614 6.9866C48.1179 6.80731 47.2517 6.74755 46.6841 6.86707ZM39.6873 9.66087C40.3743 9.84015 41.4346 10.3631 41.9947 10.7814C42.6593 11.2893 43.2268 11.999 43.6449 12.873C44.1602 13.9487 44.2797 14.5089 44.2722 15.8236C44.2647 17.0935 44.1229 17.736 43.6449 18.7071C42.8758 20.2459 41.5392 21.2917 39.7097 21.7773C39.0824 21.9416 38.8211 21.964 37.8578 21.964C36.8945 21.964 36.6331 21.9416 35.9984 21.7698C34.1689 21.2917 32.8845 20.2758 32.1005 18.6996C31.3164 17.1085 31.2044 15.2933 31.7794 13.5453C32.4738 11.4537 34.1764 9.99702 36.439 9.55629C37.0364 9.43677 39.1197 9.504 39.6873 9.66087Z" fill="#B99D84"/>
<path d="M56.0778 6.94185C54.308 7.21077 52.5009 8.0773 51.2166 9.2725C49.738 10.6545 48.7673 12.4398 48.2968 14.6285C48.1027 15.5324 48.1102 17.9153 48.3043 18.8117C48.7523 20.9033 49.5887 22.5094 50.9253 23.854C51.7094 24.6458 52.3292 25.1015 53.2477 25.5721C54.5769 26.2519 56.0106 26.5806 57.6459 26.5806C60.1624 26.5806 62.2159 25.7813 63.9633 24.1304L64.4785 23.6523V24.4591C64.4785 25.094 64.5159 25.3405 64.6204 25.5871C64.8295 26.0427 65.061 26.1324 65.9944 26.1324C66.6739 26.1324 66.8009 26.11 66.9726 25.9755C67.4132 25.6319 67.3908 26.1772 67.3908 16.638L67.3983 7.88308L67.1892 7.54692C66.6889 6.74016 65.524 6.62811 64.8743 7.32282C64.5681 7.64404 64.4785 7.99513 64.4785 8.83924V9.63853L63.9558 9.16045C62.9403 8.23417 61.5588 7.50957 60.0728 7.12113C59.3784 6.94185 59.1245 6.91197 57.9073 6.88956C57.1456 6.88209 56.3242 6.89703 56.0778 6.94185ZM58.9527 9.57877C60.2446 9.70576 61.6409 10.3332 62.5818 11.2147C63.5003 12.0663 64.0902 13.0897 64.4561 14.4418C64.6428 15.1365 64.6577 15.2933 64.6577 16.7201C64.6577 18.132 64.6428 18.3038 64.4636 18.9611C63.8065 21.3889 62.3279 22.9501 60.0205 23.6374C59.1319 23.9063 57.4966 23.9735 56.5557 23.7793C54.4275 23.3535 52.7922 22.0537 51.8662 20.0667C50.8805 17.9601 50.9029 15.3531 51.9334 13.2466C52.9863 11.0877 54.898 9.76552 57.2726 9.54889C57.855 9.4966 58.1014 9.50407 58.9527 9.57877Z" fill="#B99D84"/>
<path d="M69.8169 6.98691C69.4585 7.17366 69.2494 7.39777 69.0777 7.75633C68.9208 8.09248 68.9208 8.09995 68.9358 16.0032C68.9432 21.7776 68.9731 24.0186 69.0403 24.295C69.2569 25.2287 69.9215 26.043 70.7354 26.3716C71.1162 26.5285 71.2805 26.5435 72.3185 26.5435C73.3415 26.536 73.5282 26.521 73.8941 26.3716C74.8872 25.9757 75.2606 25.1017 74.8126 24.2053C74.3795 23.3313 73.237 23.1147 72.4977 23.7646L72.2289 23.9962L72.087 23.8244C71.9526 23.66 71.9451 23.3762 71.9451 15.9808C71.9451 7.51729 71.96 7.80862 71.4821 7.3156C71.3477 7.17366 71.1312 7.01679 70.9968 6.9645C70.6757 6.83004 70.0932 6.83751 69.8169 6.98691Z" fill="#B99D84"/>
<path d="M8.77258 18.5429C8.77258 18.5653 8.82485 18.7894 8.88459 19.0508C9.43718 21.4338 10.8112 23.4507 12.7676 24.7505C13.9176 25.5199 15.2094 26.0279 16.7477 26.3267C17.5467 26.4835 19.4434 26.5059 20.3096 26.364C23.0352 25.9307 26.2088 24.4069 26.7614 23.2714C27.0899 22.5991 26.8734 21.8148 26.2536 21.4114C25.9549 21.2172 25.8578 21.1947 25.4845 21.2172C25.0364 21.247 25.0065 21.262 23.9537 22.0687C22.3855 23.2639 20.6232 23.8466 18.6295 23.8466C16.6954 23.8391 15.1646 23.2639 13.8653 22.0538C12.9767 21.2396 12.327 20.1938 11.9761 19.0135L11.8267 18.513H10.3034C9.45958 18.513 8.77258 18.5279 8.77258 18.5429Z" fill="#EFE9E4"/>
<path d="M19.1589 27.3273C18.8079 27.4095 18.5541 27.6934 18.5018 28.0444C18.4495 28.4478 18.6735 28.7093 19.3381 29.0155C19.6368 29.1425 19.8982 29.3143 19.928 29.3816C20.0699 29.7551 19.8982 30.0315 19.48 30.1211C19.2709 30.1659 19.0096 30.1062 18.5317 29.9045C18.4122 29.8522 18.3972 29.8746 18.4196 30.0614C18.442 30.2481 18.4943 30.2929 18.8602 30.4199C19.241 30.5544 19.3157 30.5618 19.5995 30.4647C20.0401 30.3228 20.2566 30.1286 20.3387 29.8074C20.4732 29.3442 20.2715 29.0678 19.5696 28.7093C18.92 28.3806 18.8079 28.2685 18.8751 27.9847C18.9648 27.6485 19.4875 27.529 19.9131 27.7456C20.1595 27.8726 20.3089 27.8054 20.2342 27.6112C20.1446 27.3871 19.5547 27.2302 19.1589 27.3273Z" fill="#EFE9E4"/>
<path d="M9.11602 27.4249C8.92933 27.5668 9.04134 27.776 9.3027 27.776H9.51925V29.0907V30.3979L9.72834 30.3755L9.92996 30.3531L9.96729 29.2849L10.0046 28.2092L10.2511 27.9926C10.4303 27.8283 10.5647 27.776 10.7962 27.776C11.4608 27.776 11.5653 27.9627 11.6101 29.3073L11.6474 30.3531H11.8341H12.0208L12.0581 29.3447C12.0805 28.7396 12.1328 28.269 12.1926 28.1719C12.3419 27.9104 12.5883 27.776 12.9393 27.776C13.2006 27.776 13.3052 27.8208 13.4844 27.9926L13.701 28.2092V29.2102C13.701 29.7555 13.7308 30.2485 13.7682 30.3008C13.798 30.3606 13.91 30.3905 14.0071 30.3755L14.1863 30.3531V29.2177C14.1863 27.9851 14.1565 27.8805 13.6935 27.5295C13.2678 27.2157 12.3494 27.3352 12.0805 27.7461L11.9685 27.9254L11.8117 27.7311C11.625 27.4921 11.2591 27.3278 10.8932 27.3278C10.5871 27.3278 10.1241 27.522 10.0644 27.6789C10.0121 27.8058 9.89262 27.8058 9.89262 27.6789C9.89262 27.395 9.38484 27.2307 9.11602 27.4249Z" fill="#EFE9E4"/>
<path d="M15.7529 27.4622C15.1929 27.7311 14.8942 28.2316 14.8942 28.8964C14.8942 29.5389 15.1481 29.9871 15.6558 30.2485C16.2607 30.5548 17.0448 30.495 17.5152 30.0916C17.7616 29.8899 17.7616 29.875 17.6347 29.7405C17.5301 29.6285 17.4853 29.621 17.3733 29.7032C16.5892 30.2709 15.626 30.0393 15.3795 29.2102L15.3347 29.0458H16.522C17.8512 29.0458 17.9184 29.0234 17.8363 28.5902C17.6944 27.8506 17.2165 27.4099 16.4847 27.3576C16.1561 27.3277 15.9769 27.3576 15.7529 27.4622ZM17.0149 28.015C17.1568 28.1494 17.2912 28.3362 17.321 28.4258L17.3658 28.5976H16.3578H15.3422L15.4243 28.3959C15.5961 27.9477 15.85 27.7909 16.41 27.7834C16.7087 27.7759 16.7983 27.8133 17.0149 28.015Z" fill="#EFE9E4"/>
<path d="M21.8843 27.4398C20.8538 27.8058 20.5626 29.1878 21.3392 29.9721C22.4892 31.1225 24.3336 30.1066 23.9976 28.508C23.8034 27.619 22.8028 27.1111 21.8843 27.4398ZM23.1538 28.0075C23.7437 28.5603 23.684 29.4567 23.0194 29.875C22.8252 29.987 22.6833 30.0169 22.3772 29.9945C22.0411 29.9721 21.9366 29.9273 21.7051 29.6957C21.4736 29.4567 21.4363 29.3745 21.4139 28.9935C21.3765 28.4706 21.5408 28.1195 21.9217 27.9104C22.2801 27.7087 22.8924 27.761 23.1538 28.0075Z" fill="#EFE9E4"/>
<path d="M24.4979 27.4244C24.3262 27.5514 24.4158 27.7605 24.6547 27.7904L24.8414 27.8128L24.834 29.008C24.8265 29.6654 24.8564 30.2481 24.8937 30.3004C24.9236 30.3601 25.0356 30.39 25.1326 30.3751C25.3119 30.3526 25.3119 30.3377 25.3492 29.3068C25.3716 28.7316 25.4164 28.2013 25.4537 28.1266C25.618 27.7755 26.3797 27.656 26.7157 27.9249C26.9845 28.1415 27.0667 28.4926 27.0667 29.516V30.3975L27.2758 30.3751L27.4774 30.3526V29.2172C27.4774 27.9772 27.4475 27.8801 26.9621 27.5215C26.656 27.2899 25.8943 27.2974 25.5732 27.5364L25.3417 27.7082L25.1924 27.5215C25.0206 27.3049 24.7145 27.2675 24.4979 27.4244Z" fill="#EFE9E4"/>
</svg>
