<svg width="16" height="16" viewBox="0 0 16 16" fill="none" xmlns="http://www.w3.org/2000/svg">
<path d="M10 15.1668H6C2.38 15.1668 0.833332 13.6202 0.833332 10.0002V6.00016C0.833332 2.38016 2.38 0.833496 6 0.833496H10C13.62 0.833496 15.1667 2.38016 15.1667 6.00016V10.0002C15.1667 13.6202 13.62 15.1668 10 15.1668ZM6 1.8335C2.92667 1.8335 1.83333 2.92683 1.83333 6.00016V10.0002C1.83333 13.0735 2.92667 14.1668 6 14.1668H10C13.0733 14.1668 14.1667 13.0735 14.1667 10.0002V6.00016C14.1667 2.92683 13.0733 1.8335 10 1.8335H6Z" fill="#F2F2F3"/>
<path d="M8 10.8332C6.44 10.8332 5.16666 9.55984 5.16666 7.99984C5.16666 6.43984 6.44 5.1665 8 5.1665C9.56 5.1665 10.8333 6.43984 10.8333 7.99984C10.8333 9.55984 9.56 10.8332 8 10.8332ZM8 6.1665C6.98666 6.1665 6.16666 6.9865 6.16666 7.99984C6.16666 9.01317 6.98666 9.83317 8 9.83317C9.01333 9.83317 9.83333 9.01317 9.83333 7.99984C9.83333 6.9865 9.01333 6.1665 8 6.1665Z" fill="#F2F2F3"/>
<path d="M11.3333 4.99994C11.2467 4.99994 11.16 4.97994 11.08 4.9466C11 4.91327 10.9267 4.8666 10.86 4.8066C10.8 4.73994 10.7467 4.6666 10.7133 4.5866C10.68 4.5066 10.6667 4.41994 10.6667 4.33327C10.6667 4.2466 10.68 4.15994 10.7133 4.07994C10.7533 3.99327 10.8 3.9266 10.86 3.85994C10.8933 3.83327 10.9267 3.79994 10.96 3.77994C11 3.75327 11.04 3.73327 11.08 3.71994C11.12 3.69994 11.16 3.6866 11.2067 3.67994C11.42 3.63327 11.6467 3.7066 11.8067 3.85994C11.8667 3.9266 11.9133 3.99327 11.9467 4.07994C11.98 4.15994 12 4.2466 12 4.33327C12 4.41994 11.98 4.5066 11.9467 4.5866C11.9133 4.6666 11.8667 4.73994 11.8067 4.8066C11.74 4.8666 11.6667 4.91327 11.5867 4.9466C11.5067 4.97994 11.42 4.99994 11.3333 4.99994Z" fill="#F2F2F3"/>
</svg>
