<svg width="99" height="42" viewBox="0 0 99 42" fill="none" xmlns="http://www.w3.org/2000/svg">
<path d="M22.4931 0.169472C20.9151 0.620476 19.886 1.71857 19.6018 3.26767C19.249 5.15992 20.3761 6.95413 22.0912 7.21885C22.7969 7.32669 23.5614 7.20904 23.9828 6.92471C24.3846 6.65019 24.8061 5.85603 24.8061 5.38542C24.7963 4.24811 23.6692 3.3363 22.6303 3.62063C22.0324 3.7775 21.4738 4.36576 21.4738 4.82657C21.4738 5.25796 21.3366 5.21875 21.1307 4.71872C20.8465 4.05202 21.0033 3.15982 21.513 2.49312C21.905 1.98329 22.8361 1.5519 23.5712 1.5519C25.0609 1.5519 26.3154 2.85588 26.4526 4.54224C26.5898 6.29723 25.8058 7.19924 23.4732 7.98359C22.3951 8.34635 21.8168 8.59146 21.3758 8.90521C21.2386 9.00325 20.8661 9.15032 20.5427 9.23855C17.0536 10.2288 14.2897 12.5328 12.751 15.7291C11.9179 17.4645 11.5063 19.1606 11.4083 21.3274L11.3495 22.7294H13.3489H15.3482L15.358 21.3764C15.3776 19.3665 15.6227 18.1704 16.3283 16.6997C17.083 15.1604 18.2983 13.9349 19.8566 13.1603C21.2876 12.4544 22.0226 12.2975 23.924 12.3073C25.3941 12.3073 25.6195 12.3269 26.4036 12.5623C28.0109 13.0525 29.1969 13.8172 30.1965 15.0134C31.0786 16.0624 31.8431 17.7096 32.0979 19.1116L32.1567 19.4646L30.471 19.5234C29.5399 19.5626 26.9035 19.592 24.6101 19.592C22.003 19.592 20.3075 19.6312 20.0723 19.6999C19.6508 19.8175 19.0824 20.2783 18.8765 20.6705C18.2493 21.8764 19.0138 23.3569 20.3663 23.5726C20.8759 23.651 21.5032 23.4746 21.8952 23.1314L22.2088 22.8569L28.6088 22.7981L35.0186 22.7392L35.4106 22.5137C36.0771 22.1412 36.1947 21.798 36.1457 20.4744C36.0183 17.337 34.7735 14.4643 32.5978 12.2779C30.814 10.4935 28.7558 9.44445 26.139 9.00325L25.1687 8.84638L25.747 8.51303C26.5212 8.08163 27.3641 7.19924 27.7365 6.43449C29.0106 3.84613 27.5503 0.875391 24.6297 0.140059C23.8456 -0.0560284 23.2575 -0.0462246 22.4931 0.169472Z" fill="#B19276"/>
<path d="M3.48926 8.86599C1.6467 9.15032 0.5 10.1896 0.5 11.5818C0.5 12.023 0.72542 12.5917 1.01945 12.9054C1.6369 13.5721 2.7836 13.7192 3.54807 13.2388C3.78329 13.0819 4.03811 12.8368 4.11652 12.6995C4.28313 12.3858 4.43014 12.3662 4.67517 12.6407C4.85158 12.8368 4.86138 13.1897 4.91039 23.2098C4.95939 34.4555 4.92999 33.7986 5.50824 34.1418C5.70426 34.2594 6.02768 34.2986 6.82155 34.2986C8.00746 34.2986 8.33089 34.181 8.60531 33.681C8.77193 33.3868 8.78173 32.7888 8.83073 25.7688C8.88954 18.3665 8.89934 18.1508 9.10515 17.3664C9.6736 15.1996 10.8105 13.6702 12.3884 12.925C12.7119 12.7681 13.2607 12.3564 13.692 11.9446C14.1036 11.5622 14.7701 11.0328 15.1817 10.768C15.5933 10.5033 16.0148 10.219 16.1128 10.1406C16.348 9.92487 16.3284 9.46406 16.0736 9.23856C15.8874 9.07188 15.7109 9.05227 14.623 9.06208C13.5743 9.07188 13.2705 9.1111 12.6041 9.3268C10.9771 9.86604 9.79121 10.8073 8.72292 12.4348C8.56611 12.6701 8.56611 12.6603 8.39949 11.9152C8.09567 10.5523 7.13518 9.48367 5.84147 9.05227C5.35143 8.8856 4.03811 8.78755 3.48926 8.86599Z" fill="#231D18"/>
<path d="M61.3339 9.01305C60.2264 9.23856 59.1679 9.95428 58.6681 10.8073C58.5407 11.0328 58.3643 11.4838 58.2663 11.8171L58.0996 12.425L57.5214 11.8956C56.0023 10.4935 53.9931 9.53269 51.7193 9.14051C51.043 9.02286 50.406 8.99345 49.0633 9.03266C47.5049 9.07188 47.1619 9.1111 46.1426 9.37582C41.5264 10.5818 38.2333 14.1212 37.4982 18.6508C36.6554 23.8667 39.1644 28.8278 43.761 31.0632C48.2302 33.2398 53.9931 32.5731 57.3548 29.5141L58.0604 28.867L58.0016 30.573C57.9722 31.8769 57.9036 32.475 57.7468 33.0731C57.0118 35.8869 55.0712 37.691 52.0231 38.3871C50.994 38.6224 48.1812 38.6224 47.0639 38.3871C45.2409 37.9949 43.8394 37.289 42.5849 36.1321C41.6636 35.2791 41.203 35.0536 40.4777 35.1026C39.331 35.181 38.6449 36.1713 38.9096 37.3576C38.988 37.7008 39.135 37.8969 39.6642 38.3969C41.4578 40.0734 44.055 41.3284 46.711 41.8088C48.1126 42.0637 51.0528 42.0637 52.3955 41.8088C57.6586 40.8382 60.8439 37.7792 61.7064 32.877C61.8436 32.1122 61.8632 30.7592 61.8534 22.7294C61.8534 17.6311 61.8828 13.3172 61.9122 13.1407C61.9612 12.8858 62.0102 12.827 62.1376 12.8858C62.51 13.0427 63.4019 13.0427 63.7351 12.8858C65.3327 12.1211 65.2935 10.0229 63.6665 9.16993C63.2157 8.93462 62.0788 8.85618 61.3339 9.01305ZM52.1505 12.6799C53.0522 12.9152 54.4439 13.6015 55.179 14.1506C56.0513 14.8173 56.7961 15.7487 57.345 16.8958C58.0212 18.3076 58.1781 19.043 58.1683 20.7685C58.1585 22.4353 57.9722 23.2785 57.345 24.553C56.3355 26.5728 54.5811 27.9454 52.1799 28.5827C51.3567 28.7984 51.0136 28.8278 49.7493 28.8278C48.485 28.8278 48.142 28.7984 47.3089 28.5729C44.9077 27.9454 43.2219 26.612 42.1929 24.5432C41.1638 22.4549 41.0167 20.0724 41.7714 17.7782C42.6829 15.033 44.9175 13.1211 47.8872 12.5426C48.6712 12.3858 51.4057 12.474 52.1505 12.6799Z" fill="#231D18"/>
<path d="M73.6633 9.1111C71.3405 9.46406 68.9687 10.6014 67.2829 12.1701C65.3424 13.9839 64.0683 16.3271 63.4508 19.1998C63.196 20.3862 63.2058 23.5138 63.4606 24.6903C64.0487 27.4355 65.1464 29.5435 66.9007 31.3083C67.9298 32.3476 68.7433 32.9456 69.9488 33.5633C71.6933 34.4555 73.5751 34.8869 75.7215 34.8869C79.0244 34.8869 81.7196 33.8378 84.013 31.6711L84.6893 31.0436V32.1024C84.6893 32.9358 84.7383 33.2594 84.8755 33.5829C85.1499 34.181 85.4537 34.2986 86.6789 34.2986C87.5707 34.2986 87.7373 34.2692 87.9628 34.0927C88.541 33.6417 88.5116 34.3575 88.5116 21.8372L88.5214 10.3465L88.247 9.90525C87.5903 8.84638 86.0614 8.69931 85.2087 9.61112C84.8069 10.0327 84.6893 10.4935 84.6893 11.6014V12.6505L84.0032 12.023C82.6703 10.8073 80.8571 9.85623 78.9068 9.3464C77.9953 9.1111 77.6621 9.07188 76.0645 9.04247C75.0648 9.03266 73.9867 9.05227 73.6633 9.1111ZM77.4366 12.5721C79.1322 12.7387 80.965 13.5623 82.1999 14.7192C83.4054 15.8369 84.1796 17.1801 84.6599 18.9547C84.9049 19.8665 84.9245 20.0724 84.9245 21.9451C84.9245 23.7981 84.9049 24.0236 84.6697 24.8864C83.8072 28.0728 81.8666 30.122 78.8382 31.024C77.6719 31.3769 75.5255 31.4652 74.2906 31.2102C71.4973 30.6514 69.3509 28.9454 68.1356 26.3375C66.8419 23.5726 66.8713 20.1509 68.2238 17.386C69.6058 14.5525 72.1148 12.8172 75.2314 12.5328C75.9959 12.4642 76.3193 12.474 77.4366 12.5721Z" fill="#231D18"/>
<path d="M91.697 9.16993C91.2266 9.41504 90.9521 9.70917 90.7267 10.1798C90.5209 10.621 90.5209 10.6308 90.5405 21.0038C90.5503 28.5827 90.5895 31.524 90.6777 31.8867C90.9619 33.1123 91.8342 34.181 92.9025 34.6124C93.4024 34.8183 93.618 34.8379 94.9803 34.8379C96.323 34.8281 96.568 34.8085 97.0483 34.6124C98.3518 34.0927 98.8418 32.9456 98.2538 31.7691C97.6853 30.622 96.1858 30.3377 95.2155 31.1906L94.8627 31.4946L94.6765 31.2691C94.5001 31.0534 94.4903 30.6808 94.4903 20.9744C94.4903 9.86604 94.5099 10.2484 93.8826 9.60132C93.7062 9.41504 93.422 9.20914 93.2455 9.14051C92.8241 8.96403 92.0596 8.97384 91.697 9.16993Z" fill="#231D18"/>
<path d="M11.5752 24.3373C11.5752 24.3668 11.6438 24.6609 11.7222 25.004C12.4475 28.1317 14.2508 30.7788 16.8187 32.4848C18.328 33.4947 20.0235 34.1614 22.0425 34.5535C23.0912 34.7594 25.5806 34.7889 26.7175 34.6026C30.2948 34.0339 34.4602 32.0338 35.1855 30.5435C35.6167 29.6611 35.3325 28.6317 34.519 28.1022C34.127 27.8473 33.9996 27.8179 33.5095 27.8473C32.9215 27.8865 32.8823 27.9062 31.5003 28.965C29.4422 30.5337 27.1292 31.2985 24.5123 31.2985C21.9739 31.2887 19.9647 30.5337 18.2594 28.9454C17.0931 27.8767 16.2404 26.5041 15.7798 24.955L15.5837 24.2981H13.5844C12.4769 24.2981 11.5752 24.3177 11.5752 24.3373Z" fill="#B19276"/>
<path d="M25.2083 35.8673C24.7477 35.9752 24.4145 36.3478 24.3459 36.8086C24.2773 37.338 24.5713 37.6812 25.4436 38.0831C25.8356 38.2498 26.1786 38.4753 26.2178 38.5636C26.404 39.0538 26.1786 39.4165 25.6298 39.5342C25.3553 39.593 25.0123 39.5146 24.3851 39.2499C24.2283 39.1812 24.2086 39.2107 24.2381 39.4558C24.2675 39.7009 24.3361 39.7597 24.8163 39.9264C25.3161 40.1029 25.4142 40.1127 25.7866 39.9852C26.3648 39.7989 26.6491 39.544 26.7569 39.1224C26.9333 38.5145 26.6687 38.1518 25.7474 37.6812C24.8947 37.2498 24.7477 37.1027 24.8359 36.7301C24.9535 36.2889 25.6396 36.1321 26.1982 36.4164C26.5217 36.5831 26.7177 36.4948 26.6197 36.2399C26.5021 35.9458 25.7278 35.7399 25.2083 35.8673Z" fill="#B19276"/>
<path d="M12.026 35.9948C11.7809 36.1811 11.928 36.4556 12.271 36.4556H12.5552V38.1812V39.897L12.8296 39.8675L13.0943 39.8381L13.1433 38.4361L13.1923 37.0243L13.5157 36.7399C13.7509 36.5242 13.9273 36.4556 14.2312 36.4556C15.1034 36.4556 15.2407 36.7007 15.2995 38.4655L15.3485 39.8381H15.5935H15.8385L15.8875 38.5145C15.9169 37.7204 15.9855 37.1027 16.0639 36.9752C16.2599 36.6321 16.5834 36.4556 17.044 36.4556C17.387 36.4556 17.5243 36.5144 17.7595 36.7399L18.0437 37.0243V38.3381C18.0437 39.0538 18.0829 39.7009 18.1319 39.7695C18.1711 39.8479 18.3181 39.8872 18.4455 39.8675L18.6808 39.8381V38.3479C18.6808 36.7301 18.6415 36.5929 18.0339 36.1321C17.4752 35.7203 16.2697 35.8771 15.9169 36.4164L15.7699 36.6517L15.5641 36.3968C15.3191 36.083 14.8388 35.8673 14.3586 35.8673C13.9567 35.8673 13.3491 36.1223 13.2707 36.3282C13.2021 36.4948 13.0453 36.4948 13.0453 36.3282C13.0453 35.9556 12.3788 35.7399 12.026 35.9948Z" fill="#B19276"/>
<path d="M20.7384 36.0438C20.0034 36.3968 19.6113 37.0537 19.6113 37.9263C19.6113 38.7694 19.9446 39.3577 20.611 39.7009C21.4049 40.1028 22.434 40.0244 23.0514 39.495C23.3749 39.2303 23.3749 39.2106 23.2082 39.0342C23.071 38.8871 23.0122 38.8773 22.8652 38.9851C21.8361 39.7303 20.5718 39.4263 20.2484 38.338L20.1896 38.1224H21.7479C23.4925 38.1224 23.5807 38.0929 23.4729 37.5243C23.2867 36.5536 22.6594 35.9752 21.6989 35.9066C21.2677 35.8673 21.0325 35.9066 20.7384 36.0438ZM22.3948 36.7693C22.581 36.9458 22.7574 37.1909 22.7966 37.3086L22.8554 37.5341H21.5323H20.1994L20.3072 37.2694C20.5326 36.6811 20.8658 36.4752 21.6009 36.4654C21.9929 36.4556 22.1105 36.5046 22.3948 36.7693Z" fill="#B19276"/>
<path d="M28.7853 36.0144C27.4328 36.4948 27.0506 38.3086 28.0699 39.3381C29.5792 40.848 32 39.5146 31.559 37.4164C31.3042 36.2497 29.9909 35.583 28.7853 36.0144ZM30.4515 36.7595C31.2258 37.4851 31.1474 38.6616 30.2751 39.2106C30.0203 39.3577 29.834 39.3969 29.4322 39.3675C28.9912 39.3381 28.854 39.2793 28.5501 38.9753C28.2463 38.6616 28.1973 38.5538 28.1679 38.0537C28.1189 37.3674 28.3345 36.9066 28.8344 36.6321C29.3048 36.3674 30.1085 36.436 30.4515 36.7595Z" fill="#B19276"/>
<path d="M32.2156 35.9948C31.9902 36.1615 32.1078 36.436 32.4214 36.4752L32.6664 36.5046L32.6566 38.0733C32.6468 38.9361 32.686 39.7009 32.735 39.7695C32.7742 39.8479 32.9213 39.8871 33.0487 39.8675C33.2839 39.8381 33.2839 39.8185 33.3329 38.4655C33.3623 37.7106 33.4211 37.0145 33.4701 36.9164C33.6857 36.4556 34.6854 36.2987 35.1264 36.6517C35.4793 36.936 35.5871 37.3968 35.5871 38.74V39.897L35.8615 39.8675L36.1261 39.8381V38.3479C36.1261 36.7203 36.0869 36.5929 35.4499 36.1223C35.048 35.8183 34.0484 35.8281 33.6269 36.1419L33.3231 36.3674L33.1271 36.1223C32.9017 35.8379 32.4998 35.7889 32.2156 35.9948Z" fill="#B19276"/>
</svg>
