<svg width="250" height="226" viewBox="0 0 250 226" fill="none" xmlns="http://www.w3.org/2000/svg">
<path d="M82.6988 172.324C81.6878 172.409 80.7119 172.735 79.8538 173.276L51.6588 191.054C50.805 191.59 49.8346 191.914 48.8294 191.998C47.8241 192.082 46.8134 191.923 45.8824 191.536C44.9513 191.148 44.1271 190.542 43.4791 189.77C42.8311 188.998 42.3783 188.082 42.1588 187.098L14.3588 62.1863C14.0834 60.9389 14.1945 59.6373 14.6772 58.4544C15.1599 57.2716 15.9914 56.2633 17.0613 55.5637L45.9488 36.6845C46.5599 36.2838 47.2369 35.9939 47.9488 35.828L50.1613 44.5284C48.8929 44.3283 47.5953 44.6069 46.5213 45.31L24.9188 59.4269C24.0351 60.0055 23.3488 60.8392 22.9513 61.8171C22.5538 62.795 22.464 63.8707 22.6938 64.9008L47.5263 176.527C47.7075 177.34 48.0817 178.097 48.6172 178.735C49.1528 179.373 49.8341 179.874 50.6036 180.193C51.3732 180.513 52.2085 180.644 53.0391 180.574C53.8697 180.504 54.6713 180.235 55.3763 179.791L75.8238 166.895C77.3494 165.936 79.0478 165.283 80.8238 164.973L82.6988 172.324Z" fill="url(#paint0_linear_1596_32396)"/>
<path d="M159.005 166.084L140.52 188.417C139.889 189.173 139.089 189.77 138.184 190.16C137.28 190.551 136.296 190.723 135.312 190.664L133.062 181.936C133.914 182.026 134.775 181.904 135.567 181.581C136.36 181.258 137.06 180.743 137.605 180.083L154.975 159.122C155.338 159.122 155.7 159.097 156.062 159.079L158.562 165.242C158.678 165.538 158.827 165.821 159.005 166.084Z" fill="url(#paint1_linear_1596_32396)"/>
<path d="M164.919 26.788C163.747 26.8425 162.629 27.2923 161.746 28.064L111.141 72.2202C109.528 73.6275 107.611 74.6422 105.539 75.1844L103.656 67.885C104.589 67.6408 105.452 67.1844 106.179 66.5515L159.599 19.9305C160.582 19.0693 161.81 18.5367 163.111 18.4072L164.919 26.788Z" fill="url(#paint2_linear_1596_32396)"/>
<path d="M80.8298 164.978C79.0538 165.288 77.3554 165.941 75.8298 166.9L55.3823 179.796C54.677 180.243 53.8745 180.513 53.0427 180.584C52.2108 180.655 51.374 180.525 50.603 180.205C49.8321 179.885 49.1496 179.384 48.6134 178.745C48.0772 178.105 47.7029 177.346 47.5223 176.532L41.5748 149.774L40.5348 145.1L31.5348 104.689L30.3623 99.4226L22.6948 64.9008C22.465 63.8706 22.5548 62.7949 22.9523 61.817C23.3498 60.8391 24.0361 60.0054 24.9198 59.4268L46.5223 45.3099C47.5946 44.6049 48.8913 44.3236 50.1598 44.5208L60.2298 84.0695L61.7298 89.948L70.6698 125.062L72.1123 130.73L80.8298 164.978Z" fill="url(#paint3_linear_1596_32396)"/>
<path d="M177.327 84.4192C169.866 79.2707 160.908 76.7348 151.852 77.2071C150.128 77.296 148.412 77.4962 146.714 77.8065C145.096 78.0985 143.497 78.4888 141.927 78.9752C140.812 79.3198 139.704 79.7144 138.602 80.1589C132.565 82.6069 127.197 86.454 122.941 91.3826C118.685 96.3113 115.664 102.18 114.127 108.505L112.967 104.01L107.967 84.579L105.547 75.1944C107.619 74.6521 109.536 73.6375 111.149 72.2301L139.134 47.8097L142.432 44.9328L161.754 28.074C162.637 27.3023 163.755 26.8524 164.927 26.7979L173.272 65.5875L174.504 71.3062L176.449 80.3387L177.327 84.4192Z" fill="url(#paint4_linear_1596_32396)"/>
<path d="M154.97 159.129L137.6 180.091C137.055 180.751 136.355 181.265 135.562 181.588C134.77 181.912 133.909 182.034 133.057 181.944L123.75 145.846C127.709 150.15 132.542 153.561 137.926 155.851C143.309 158.142 149.12 159.259 154.97 159.129Z" fill="url(#paint5_linear_1596_32396)"/>
<path d="M135.313 190.664C134.691 190.632 134.076 190.507 133.491 190.295L85.3806 172.684C84.5228 172.373 83.6079 172.249 82.6981 172.322L80.8281 164.975C81.6154 164.835 82.4135 164.765 83.2131 164.765C84.8388 164.765 86.4517 165.051 87.9781 165.609L131.811 181.654C132.213 181.803 132.633 181.899 133.061 181.941L135.313 190.664Z" fill="url(#paint6_linear_1596_32396)"/>
<path d="M133.056 181.944C132.629 181.902 132.209 181.805 131.806 181.657L87.9737 165.612C86.4474 165.053 84.8344 164.767 83.2087 164.768C82.4091 164.767 81.611 164.837 80.8238 164.978L72.1062 130.73L70.6637 125.062L69.1637 119.166L62.4388 92.7724L61.7213 89.9531L60.2213 84.0746L50.1562 44.5208C50.9016 44.6339 51.6132 44.9083 52.2412 45.3249L64.5163 53.4909L71.2463 57.9634L94.3587 73.3214C95.9842 74.4003 97.8196 75.1239 99.7445 75.445C101.669 75.766 103.641 75.6772 105.529 75.1844L107.949 84.569L112.949 104L114.109 108.495C114.061 108.687 114.016 108.877 113.974 109.069C112.51 115.53 112.633 122.249 114.333 128.652C116.033 135.055 119.26 140.952 123.736 145.839L133.056 181.944Z" fill="url(#paint7_linear_1596_32396)"/>
<path d="M105.533 75.1845C103.645 75.6773 101.674 75.7661 99.7486 75.445C97.8236 75.124 95.9883 74.4004 94.3628 73.3215L52.2428 45.325C51.6152 44.9066 50.9036 44.6305 50.1578 44.5159L47.9453 35.8155C48.7848 35.6163 49.6564 35.5917 50.5058 35.7434C51.3553 35.8951 52.1644 36.2197 52.8828 36.697L98.5403 67.051C99.2841 67.5441 100.124 67.8739 101.005 68.0185C101.886 68.1631 102.788 68.1194 103.65 67.89L105.533 75.1845Z" fill="url(#paint8_linear_1596_32396)"/>
<path d="M227.744 144.638L191.832 134.032C192.808 131.71 193.569 129.305 194.107 126.845L219.472 134.336C220.336 134.59 221.252 134.615 222.129 134.409C223.006 134.203 223.815 133.772 224.475 133.16C225.136 132.547 225.625 131.774 225.897 130.916C226.168 130.057 226.211 129.143 226.022 128.263L220.272 101.543L219.022 95.7691L216.389 83.5627L215.139 77.7591L207.829 43.884C207.639 43.0137 207.228 42.2069 206.636 41.5409C206.043 40.8749 205.29 40.3721 204.447 40.0807L166.867 27.0676C166.241 26.8498 165.579 26.7548 164.917 26.788L163.109 18.4072C164.019 18.3163 164.938 18.4245 165.802 18.7244L210.344 34.1348C211.367 34.4883 212.281 35.0987 212.999 35.9075C213.716 36.7162 214.213 37.6959 214.442 38.7522L235.692 137.281C235.922 138.348 235.869 139.457 235.54 140.498C235.211 141.539 234.617 142.477 233.815 143.219C233.013 143.961 232.032 144.482 230.968 144.731C229.903 144.98 228.792 144.948 227.744 144.638Z" fill="url(#paint9_linear_1596_32396)"/>
<path d="M219.469 134.336L194.104 126.845C195.667 119.641 195.258 112.149 192.92 105.158C190.583 98.1665 186.402 91.9333 180.819 87.1137L177.649 85.9325L177.324 84.4191L176.447 80.3386L174.502 71.2962L173.269 65.5875L164.914 26.7879C165.576 26.7547 166.238 26.8497 166.864 27.0676L204.444 40.0807C205.288 40.3732 206.043 40.8779 206.635 41.5462C207.228 42.2145 207.638 43.0239 207.827 43.8965L215.134 77.774L216.384 83.5776L219.019 95.7691L220.269 101.535L226.019 128.256C226.21 129.136 226.168 130.051 225.897 130.911C225.627 131.77 225.137 132.545 224.477 133.158C223.816 133.771 223.007 134.203 222.129 134.409C221.251 134.616 220.334 134.591 219.469 134.336Z" fill="url(#paint10_linear_1596_32396)"/>
<path d="M96.8394 109.659L102.534 138.047C102.592 138.335 102.574 138.632 102.481 138.91C102.388 139.188 102.223 139.436 102.004 139.631C101.784 139.826 101.518 139.959 101.231 140.019C100.943 140.078 100.646 140.062 100.367 139.97L72.4769 130.805C72.3569 130.766 72.2327 130.741 72.1069 130.73C71.7372 130.695 71.3663 130.783 71.0519 130.98L41.5694 149.774L40.5294 145.1L70.2669 125.259C70.3939 125.176 70.5308 125.11 70.6744 125.062C71.0145 124.949 71.3818 124.949 71.7219 125.062L93.4944 132.211C93.7729 132.302 94.0704 132.319 94.3574 132.26C94.6443 132.2 94.9107 132.067 95.13 131.873C95.3492 131.678 95.5137 131.43 95.607 131.153C95.7003 130.875 95.7193 130.578 95.6619 130.291L90.4544 104.387C90.4043 104.132 90.2949 103.893 90.1351 103.688C89.9753 103.483 89.7695 103.319 89.5344 103.208L61.7219 89.9481L61.6794 89.9281C61.4445 89.816 61.187 89.7598 60.9267 89.7637C60.6665 89.7676 60.4107 89.8315 60.1794 89.9506L31.5319 104.684L30.3594 99.4176L60.0919 84.122L60.2144 84.0646C60.4318 83.9751 60.6655 83.932 60.9006 83.938C61.1356 83.944 61.3668 83.999 61.5794 84.0995L72.9694 89.526C73.2649 89.6668 73.5951 89.7182 73.9195 89.6737C74.2438 89.6293 74.548 89.4911 74.7947 89.276C75.0413 89.061 75.2196 88.7786 75.3075 88.4636C75.3954 88.1486 75.3891 87.8147 75.2894 87.5033L64.5819 54.29C64.4952 54.0312 64.4737 53.755 64.5194 53.4859L71.2494 57.9585L82.7494 93.6015C82.8203 93.818 82.9341 94.0179 83.084 94.1895C83.2339 94.3611 83.4168 94.5009 83.6219 94.6004L113.934 109.054L113.987 109.077C113.583 110.848 113.297 112.644 113.132 114.453L99.2044 107.818C98.9235 107.685 98.611 107.632 98.3018 107.666C97.9927 107.7 97.699 107.819 97.4537 108.01C97.2084 108.201 97.021 108.456 96.9125 108.747C96.804 109.039 96.7787 109.354 96.8394 109.659Z" fill="url(#paint11_linear_1596_32396)"/>
<path d="M151.853 77.2072C150.129 77.2961 148.413 77.4963 146.715 77.8066L139.125 47.8022L142.423 44.9254C142.714 45.1466 142.925 45.4571 143.023 45.8095L151.853 77.2072Z" fill="url(#paint12_linear_1596_32396)"/>
<path d="M216.378 83.5652C216.192 83.5732 216.006 83.5496 215.827 83.4953L175.17 71.3637C174.916 71.2876 174.648 71.2723 174.388 71.3192C174.127 71.366 173.881 71.4737 173.67 71.6334L164.86 78.2885C164.759 78.3622 164.666 78.4459 164.583 78.5383C162.263 77.9139 159.893 77.4961 157.5 77.2896L172.637 65.8673C172.822 65.7249 173.035 65.6252 173.262 65.5751C173.546 65.5064 173.843 65.5141 174.122 65.5976L215.122 77.7491L216.378 83.5652Z" fill="url(#paint13_linear_1596_32396)"/>
<path d="M220.267 101.538C219.96 101.603 219.641 101.577 219.349 101.463L180.817 87.1137L177.647 85.9325L177.322 84.4192C175.32 83.0402 173.199 81.8418 170.984 80.8382L176.444 80.3387L176.969 80.2888C177.224 80.265 177.48 80.2992 177.719 80.3887L219.017 95.7691L220.267 101.538Z" fill="url(#paint14_linear_1596_32396)"/>
<path d="M69.163 119.166C68.7495 119.201 68.3536 119.349 68.018 119.593L46.1005 135.443C45.79 135.668 45.4281 135.812 45.0476 135.862C44.6672 135.912 44.2803 135.866 43.9221 135.728C43.5639 135.591 43.2457 135.366 42.9966 135.075C42.7475 134.783 42.5752 134.434 42.4955 134.059L36.7455 107.199C36.6396 106.7 36.7023 106.18 36.924 105.72C37.1457 105.261 37.5138 104.887 37.9705 104.659L61.333 93.0046C61.6737 92.8337 62.0522 92.7521 62.433 92.7674L69.163 119.166Z" fill="url(#paint15_linear_1596_32396)"/>
<path d="M82.635 124.567L70.265 119.338C69.9148 119.187 69.532 119.128 69.1525 119.166L62.4375 92.7725C62.7719 92.7849 63.0995 92.8701 63.3975 93.0222L81.6475 102.13C81.9755 102.293 82.2598 102.532 82.4772 102.827C82.6945 103.122 82.8386 103.464 82.8975 103.825L85.8275 122.1C85.8909 122.507 85.8438 122.923 85.6913 123.306C85.5388 123.688 85.2864 124.023 84.9604 124.275C84.6344 124.527 84.2466 124.687 83.8377 124.738C83.4287 124.79 83.0134 124.731 82.635 124.567Z" fill="url(#paint16_linear_1596_32396)"/>
<path d="M82.6864 138.722L115.656 147.749C116.026 147.851 116.362 148.05 116.63 148.324C116.898 148.598 117.088 148.938 117.181 149.31L122.196 169.503C122.292 169.889 122.279 170.294 122.158 170.673C122.038 171.053 121.815 171.391 121.514 171.652C121.212 171.913 120.845 172.085 120.452 172.15C120.059 172.215 119.655 172.17 119.286 172.02L86.7639 158.804C86.4774 158.688 86.2193 158.512 86.0071 158.288C85.7949 158.063 85.6335 157.796 85.5339 157.503L80.0839 141.501C79.9579 141.131 79.9348 140.734 80.0171 140.352C80.0994 139.97 80.284 139.618 80.5512 139.332C80.8184 139.047 81.1582 138.839 81.5342 138.732C81.9102 138.624 82.3085 138.621 82.6864 138.722Z" fill="url(#paint17_linear_1596_32396)"/>
<path d="M141.923 78.9752C140.808 79.3198 139.7 79.7144 138.598 80.1589C128.625 84.1791 120.639 91.9623 116.371 101.822L114.121 103.553C113.784 103.814 113.378 103.97 112.953 104L107.953 84.569C108.412 84.5374 108.849 84.3627 109.203 84.0696L135.136 62.1963C135.421 61.9565 135.764 61.7947 136.13 61.7265C136.497 61.6584 136.875 61.6863 137.227 61.8076C137.58 61.9288 137.895 62.1392 138.141 62.4183C138.388 62.6974 138.559 63.0356 138.636 63.4L141.923 78.9752Z" fill="url(#paint18_linear_1596_32396)"/>
<path d="M112.967 104.01C112.582 104.036 112.198 103.96 111.852 103.79L87.6917 91.7736C87.1946 91.5276 86.812 91.0989 86.6242 90.5774L80.7242 74.4053C80.574 73.9933 80.5529 73.5453 80.664 73.1211C80.775 72.6968 81.0127 72.3165 81.3456 72.0306C81.6785 71.7447 82.0907 71.567 82.5272 71.521C82.9638 71.475 83.404 71.563 83.7892 71.7732L106.772 84.3093C107.135 84.5043 107.546 84.5909 107.957 84.559L112.967 104.01Z" fill="url(#paint19_linear_1596_32396)"/>
<path d="M179.491 35.8929L201.134 43.0999C201.509 43.2241 201.846 43.4418 202.113 43.7324C202.38 44.023 202.569 44.3768 202.661 44.7606L207.816 66.0695C207.913 66.4728 207.9 66.8946 207.778 67.2912C207.657 67.6877 207.431 68.0446 207.125 68.3248C206.819 68.6051 206.444 68.7984 206.038 68.8849C205.632 68.9713 205.21 68.9477 204.816 68.8165L179.154 60.2809C178.773 60.1539 178.432 59.9308 178.163 59.6333C177.894 59.3358 177.706 58.9739 177.619 58.5828L173.691 41.1296C173.52 40.355 173.558 39.5491 173.8 38.7937C174.042 38.0383 174.479 37.3603 175.068 36.8284C175.657 36.2966 176.377 35.9299 177.154 35.7656C177.93 35.6013 178.737 35.6452 179.491 35.8929Z" fill="url(#paint20_linear_1596_32396)"/>
<path d="M192.48 205.051L186.933 207.298C186.389 207.519 185.807 207.63 185.22 207.625C184.633 207.621 184.053 207.501 183.513 207.273C182.972 207.044 182.482 206.712 182.07 206.294C181.658 205.876 181.333 205.382 181.113 204.838L165.82 167.13L179.65 161.536L194.945 199.245C195.387 200.341 195.376 201.568 194.914 202.656C194.452 203.745 193.577 204.606 192.48 205.051Z" fill="url(#paint21_linear_1596_32396)"/>
<path d="M181.095 160.947L179.653 161.531L165.823 167.125L164.38 167.71C163.836 167.93 163.255 168.041 162.668 168.037C162.081 168.032 161.501 167.912 160.961 167.684C160.421 167.455 159.931 167.123 159.519 166.705C159.108 166.288 158.783 165.793 158.562 165.25L156.062 159.089C165.296 158.615 174.101 155.053 181.062 148.975L183.562 155.133C184.006 156.231 183.996 157.46 183.533 158.55C183.07 159.64 182.194 160.502 181.095 160.947Z" fill="#B1B8BC"/>
<path d="M192.036 102.761C188.766 94.7164 183.021 87.9176 175.631 83.3467C168.24 78.7758 159.587 76.6695 150.92 77.3317C142.253 77.994 134.02 81.3907 127.412 87.0313C120.804 92.6718 116.161 100.264 114.154 108.713C112.148 117.161 112.881 126.028 116.248 134.032C119.616 142.037 125.443 148.766 132.888 153.247C140.333 157.728 149.012 159.729 157.67 158.962C166.329 158.194 174.519 154.698 181.058 148.978C187.465 143.367 191.965 135.902 193.932 127.62C195.899 119.338 195.236 110.65 192.036 102.761ZM172.563 139.97C172.421 140.093 172.278 140.22 172.133 140.327C171.988 140.435 171.843 140.577 171.696 140.677C171.548 140.777 171.423 140.892 171.283 140.994C171.258 141.015 171.232 141.034 171.206 141.052C171.076 141.151 170.956 141.246 170.813 141.341L170.773 141.369C170.638 141.469 170.503 141.563 170.366 141.656C170.347 141.672 170.327 141.686 170.306 141.698C170.163 141.798 170.018 141.898 169.871 141.993C169.753 142.073 169.621 142.15 169.513 142.225L169.333 142.343C169.201 142.425 169.071 142.507 168.936 142.592C168.927 142.599 168.918 142.604 168.908 142.607C168.783 142.685 168.658 142.76 168.531 142.832C168.331 142.952 168.128 143.067 167.926 143.177C167.798 143.249 167.676 143.319 167.538 143.386C167.463 143.429 167.386 143.469 167.308 143.509C166.833 143.759 166.349 143.994 165.856 144.216C165.501 144.378 165.141 144.53 164.778 144.678C164.596 144.752 164.411 144.825 164.226 144.895L163.751 145.07L163.633 145.112L163.296 145.229C163.178 145.272 163.061 145.312 162.941 145.349L162.691 145.432C162.501 145.492 162.308 145.552 162.118 145.607C161.928 145.661 161.751 145.714 161.568 145.761C161.136 145.884 160.706 145.991 160.271 146.086C160.163 146.111 160.056 146.136 159.948 146.156C159.798 146.191 159.651 146.221 159.501 146.248L159.396 146.268C159.228 146.301 159.061 146.333 158.896 146.361C158.453 146.438 158.008 146.503 157.566 146.558C157.413 146.578 157.263 146.598 157.113 146.613L156.951 146.63L156.501 146.673H156.366L155.961 146.703H155.903C149.108 147.146 142.377 145.158 136.917 141.094C131.456 137.03 127.623 131.156 126.105 124.526C124.586 117.895 125.481 110.941 128.63 104.91C131.778 98.8784 136.974 94.1645 143.286 91.6126C149.598 89.0607 156.614 88.8377 163.075 90.9837C169.537 93.1296 175.022 97.5041 178.548 103.323C182.074 109.142 183.41 116.025 182.316 122.739C181.223 129.453 177.771 135.558 172.581 139.96L172.563 139.97Z" fill="url(#paint22_linear_1596_32396)"/>
<path d="M172.561 139.97C167.945 143.89 162.204 146.247 156.163 146.703C150.122 147.16 144.091 145.692 138.937 142.511C133.783 139.33 129.771 134.599 127.477 128.998C125.184 123.397 124.726 117.214 126.17 111.336C127.614 105.459 130.885 100.19 135.514 96.286C140.144 92.3821 145.892 90.044 151.935 89.6077C157.978 89.1714 164.003 90.6592 169.147 93.8575C174.29 97.0558 178.286 101.8 180.561 107.409C182.835 112.986 183.286 119.138 181.849 124.986C180.412 130.834 177.161 136.079 172.561 139.97Z" fill="url(#paint23_linear_1596_32396)"/>
<path d="M169.797 127.789C170.183 128.174 170.399 128.696 170.399 129.241C170.399 129.785 170.183 130.308 169.797 130.693L165.525 134.956C165.334 135.146 165.108 135.298 164.859 135.401C164.609 135.504 164.342 135.557 164.072 135.557C163.803 135.557 163.535 135.504 163.286 135.401C163.037 135.298 162.81 135.146 162.62 134.956L153.87 126.215L145.12 134.956C144.929 135.146 144.703 135.298 144.454 135.401C144.204 135.504 143.937 135.557 143.667 135.557C143.398 135.557 143.13 135.504 142.881 135.401C142.632 135.298 142.405 135.146 142.215 134.956L137.947 130.693C137.756 130.503 137.604 130.276 137.501 130.027C137.397 129.778 137.344 129.511 137.344 129.241C137.344 128.971 137.397 128.704 137.501 128.455C137.604 128.205 137.756 127.979 137.947 127.789L146.697 119.048L137.947 110.308C137.756 110.118 137.604 109.892 137.501 109.643C137.397 109.394 137.344 109.127 137.344 108.857C137.344 108.588 137.397 108.321 137.501 108.072C137.604 107.823 137.756 107.597 137.947 107.406L142.215 103.146C142.405 102.954 142.631 102.802 142.881 102.698C143.13 102.595 143.397 102.541 143.667 102.541C143.937 102.541 144.205 102.595 144.454 102.698C144.703 102.802 144.93 102.954 145.12 103.146L153.87 111.886L162.62 103.146C162.81 102.954 163.036 102.802 163.286 102.698C163.535 102.595 163.802 102.541 164.072 102.541C164.342 102.541 164.61 102.595 164.859 102.698C165.108 102.802 165.335 102.954 165.525 103.146L169.795 107.406C169.986 107.597 170.137 107.823 170.241 108.072C170.344 108.321 170.397 108.588 170.397 108.857C170.397 109.127 170.344 109.394 170.241 109.642C170.137 109.891 169.986 110.118 169.795 110.308L161.045 119.048L169.797 127.789Z" fill="url(#paint24_linear_1596_32396)"/>
<path d="M86.0081 190.909C87.8334 190.909 89.3131 189.431 89.3131 187.608C89.3131 185.784 87.8334 184.306 86.0081 184.306C84.1828 184.306 82.7031 185.784 82.7031 187.608C82.7031 189.431 84.1828 190.909 86.0081 190.909Z" fill="url(#paint25_linear_1596_32396)"/>
<path d="M106.457 201.867C109.41 201.867 111.804 199.475 111.804 196.525C111.804 193.575 109.41 191.184 106.457 191.184C103.504 191.184 101.109 193.575 101.109 196.525C101.109 199.475 103.504 201.867 106.457 201.867Z" fill="url(#paint26_linear_1596_32396)"/>
<path d="M97.8844 56.6749C101.35 56.6749 104.159 53.8686 104.159 50.4068C104.159 46.945 101.35 44.1387 97.8844 44.1387C94.4188 44.1387 91.6094 46.945 91.6094 50.4068C91.6094 53.8686 94.4188 56.6749 97.8844 56.6749Z" fill="url(#paint27_linear_1596_32396)"/>
<path d="M113.927 50.2395C115.099 50.2395 116.05 49.2903 116.05 48.1194C116.05 46.9485 115.099 45.9992 113.927 45.9992C112.755 45.9992 111.805 46.9485 111.805 48.1194C111.805 49.2903 112.755 50.2395 113.927 50.2395Z" fill="url(#paint28_linear_1596_32396)"/>
<path d="M199.851 153.832C201.382 153.832 202.623 152.592 202.623 151.063C202.623 149.533 201.382 148.294 199.851 148.294C198.319 148.294 197.078 149.533 197.078 151.063C197.078 152.592 198.319 153.832 199.851 153.832Z" fill="url(#paint29_linear_1596_32396)"/>
<path d="M189.319 161.963C190.099 161.963 190.731 161.332 190.731 160.553C190.731 159.773 190.099 159.142 189.319 159.142C188.539 159.142 187.906 159.773 187.906 160.553C187.906 161.332 188.539 161.963 189.319 161.963Z" fill="url(#paint30_linear_1596_32396)"/>
<path d="M79.2157 158.27C79.0453 158.27 78.8799 158.212 78.7468 158.106C78.6136 158 78.5206 157.852 78.4832 157.686C78.1457 156.187 71.2332 129.347 64.5257 103.386C58.8382 81.3301 53.4657 60.4981 52.8107 57.8436C52.7633 57.6505 52.7946 57.4465 52.8977 57.2765C53.0009 57.1065 53.1674 56.9844 53.3607 56.9371C53.5539 56.8897 53.7581 56.921 53.9283 57.024C54.0985 57.1271 54.2208 57.2934 54.2682 57.4865C54.9182 60.131 60.2907 80.9605 65.9782 103.014C72.6782 128.985 79.6032 155.84 79.9457 157.356C79.9704 157.465 79.9702 157.579 79.945 157.689C79.9198 157.798 79.8704 157.9 79.8003 157.988C79.7302 158.076 79.6413 158.147 79.5401 158.195C79.4389 158.244 79.328 158.27 79.2157 158.27ZM208.638 76.5878C208.567 76.5878 208.496 76.5778 208.428 76.5579L173.058 66.3017C172.961 66.2767 172.87 66.2325 172.79 66.1716C172.71 66.1108 172.643 66.0345 172.593 65.9474C172.544 65.8603 172.512 65.7641 172.5 65.6644C172.488 65.5648 172.497 65.4639 172.525 65.3675C172.553 65.2712 172.6 65.1814 172.663 65.1036C172.726 65.0258 172.805 64.9614 172.893 64.9144C172.982 64.8674 173.079 64.8386 173.179 64.8299C173.279 64.8211 173.38 64.8324 173.476 64.8633L208.848 75.102C209.024 75.1507 209.175 75.2616 209.275 75.4139C209.375 75.5661 209.415 75.7494 209.39 75.9295C209.364 76.1096 209.273 76.2742 209.135 76.3926C208.997 76.5109 208.82 76.575 208.638 76.5729V76.5878Z" fill="#B1B8BC"/>
<path d="M34.4069 44.2211L45.9519 36.6769C46.563 36.2762 47.24 35.9863 47.9519 35.8204C48.7914 35.6212 49.6629 35.5966 50.5124 35.7483C51.3618 35.8999 52.1709 36.2245 52.8894 36.7019L65.6768 45.1925C70.0844 45.2281 74.3859 46.5462 78.0552 48.9856C81.7245 51.4249 84.6024 54.8798 86.3369 58.9273L98.5469 67.0508C99.6979 67.8151 101.068 68.1802 102.448 68.0899C103.827 67.9997 105.138 67.4591 106.179 66.5514L159.599 19.9305C160.092 19.4995 160.648 19.1481 161.249 18.8891C161.841 18.6327 162.47 18.4701 163.112 18.4071C164.022 18.3162 164.941 18.4244 165.804 18.7243L210.347 34.1348C211.369 34.4882 212.283 35.0987 213.001 35.9074C213.719 36.7161 214.216 37.6958 214.444 38.7521L215.539 43.8265C220.536 41.9998 224.73 38.4745 227.385 33.8686C230.041 29.2627 230.989 23.87 230.062 18.636C229.136 13.4021 226.395 8.66072 222.32 5.24319C218.245 1.82565 213.095 -0.0499869 207.774 -0.0549316H41.0044C35.5755 -0.0525204 30.3281 1.89711 26.2172 5.43904C22.1064 8.98097 19.4055 13.8797 18.6063 19.2434C17.807 24.6071 18.9626 30.0792 21.8626 34.6635C24.7625 39.2478 29.2141 42.6395 34.4069 44.2211ZM113.934 45.9991C114.354 45.9991 114.765 46.1235 115.114 46.3564C115.463 46.5894 115.735 46.9205 115.895 47.3079C116.056 47.6953 116.098 48.1216 116.016 48.5329C115.934 48.9442 115.732 49.3219 115.435 49.6185C115.138 49.915 114.76 50.1169 114.348 50.1987C113.937 50.2805 113.51 50.2385 113.122 50.078C112.734 49.9176 112.403 49.6458 112.17 49.2972C111.936 48.9485 111.812 48.5386 111.812 48.1193C111.812 47.8409 111.867 47.5652 111.973 47.3079C112.08 47.0507 112.236 46.817 112.434 46.6201C112.631 46.4232 112.865 46.2671 113.122 46.1605C113.38 46.054 113.656 45.9991 113.934 45.9991ZM97.8894 44.1387C99.1304 44.1387 100.344 44.5063 101.376 45.195C102.407 45.8838 103.212 46.8627 103.687 48.0081C104.162 49.1534 104.286 50.4137 104.044 51.6296C103.802 52.8455 103.204 53.9623 102.326 54.8389C101.449 55.7155 100.331 56.3125 99.1135 56.5544C97.8963 56.7962 96.6346 56.6721 95.488 56.1977C94.3414 55.7233 93.3614 54.9199 92.6719 53.8891C91.9824 52.8583 91.6143 51.6465 91.6143 50.4067C91.6143 48.7444 92.2755 47.15 93.4523 45.9746C94.629 44.7991 96.2251 44.1387 97.8894 44.1387Z" fill="url(#paint31_linear_1596_32396)"/>
<path d="M22.2756 135.697C22.4056 135.697 22.5256 135.697 22.6631 135.697H30.7056L20.6581 90.5399C14.8814 91.0534 9.52202 93.7607 5.68424 98.104C1.84647 102.447 -0.177247 108.095 0.0301228 113.885C0.237493 119.674 2.66015 125.164 6.79885 129.222C10.9376 133.28 16.477 135.598 22.2756 135.697Z" fill="url(#paint32_linear_1596_32396)"/>
<path d="M225.586 90.45L235.056 134.364C240.072 132.558 244.289 129.042 246.966 124.435C249.642 119.828 250.606 114.426 249.687 109.18C248.769 103.933 246.027 99.1785 241.945 95.7525C237.862 92.3265 232.7 90.4488 227.368 90.45H225.586Z" fill="url(#paint33_linear_1596_32396)"/>
<path d="M229.946 180.95C229.091 180.85 228.23 180.801 227.369 180.803H192.354C190.5 180.592 188.679 180.152 186.934 179.494L194.934 199.237C195.378 200.335 195.368 201.563 194.905 202.653C194.443 203.743 193.567 204.606 192.469 205.051L186.921 207.298C186.377 207.519 185.796 207.63 185.209 207.625C184.622 207.621 184.042 207.501 183.501 207.273C182.961 207.044 182.471 206.712 182.059 206.294C181.647 205.876 181.322 205.382 181.101 204.839L165.809 167.13L164.366 167.715C163.42 168.098 162.37 168.146 161.392 167.85C160.415 167.554 159.568 166.933 158.994 166.089L140.519 188.417C139.929 189.129 139.189 189.703 138.351 190.097C137.514 190.491 136.599 190.695 135.674 190.694C135.556 190.694 135.439 190.694 135.321 190.694C134.699 190.662 134.085 190.537 133.499 190.325L85.3788 172.684C84.4738 172.353 83.5047 172.234 82.5464 172.336C81.588 172.438 80.666 172.759 79.8513 173.273L51.6563 191.054C50.8025 191.59 49.8321 191.914 48.8269 191.998C47.8217 192.082 46.811 191.923 45.8799 191.536C44.9488 191.148 44.1246 190.542 43.4766 189.77C42.8286 188.998 42.3758 188.082 42.1563 187.098L40.7563 180.803H22.6688C21.8075 180.801 20.9468 180.85 20.0913 180.95C14.3414 181.603 9.0598 184.43 5.33049 188.85C1.60118 193.27 -0.29295 198.948 0.0368387 204.719C0.366627 210.491 2.89532 215.917 7.10394 219.884C11.3126 223.852 16.8818 226.06 22.6688 226.055H227.369C233.156 226.06 238.725 223.852 242.934 219.884C247.142 215.917 249.671 210.491 250.001 204.719C250.331 198.948 248.436 193.27 244.707 188.85C240.978 184.43 235.696 181.603 229.946 180.95ZM86.0038 190.914C85.3501 190.914 84.7111 190.72 84.1676 190.358C83.6241 189.995 83.2005 189.479 82.9504 188.876C82.7002 188.273 82.6348 187.609 82.7623 186.968C82.8898 186.328 83.2046 185.74 83.6668 185.278C84.129 184.816 84.7179 184.502 85.359 184.375C86.0001 184.247 86.6646 184.313 87.2686 184.562C87.8725 184.812 88.3886 185.236 88.7518 185.778C89.115 186.321 89.3088 186.96 89.3088 187.613C89.3088 188.488 88.9606 189.328 88.3408 189.947C87.721 190.566 86.8803 190.914 86.0038 190.914ZM106.459 201.872C105.401 201.872 104.367 201.559 103.488 200.972C102.608 200.385 101.923 199.55 101.518 198.574C101.114 197.598 101.008 196.524 101.214 195.488C101.42 194.452 101.93 193.5 102.678 192.753C103.425 192.006 104.378 191.497 105.416 191.291C106.453 191.085 107.528 191.191 108.505 191.595C109.482 191.999 110.317 192.684 110.905 193.563C111.493 194.441 111.806 195.474 111.806 196.53C111.805 197.946 111.241 199.303 110.238 200.304C109.236 201.305 107.876 201.867 106.459 201.867V201.872Z" fill="url(#paint34_linear_1596_32396)"/>
<path d="M190.914 136.055C192.113 135.841 193.327 135.723 194.544 135.702H197.487L191.832 134.032C191.544 134.726 191.237 135.388 190.914 136.055Z" fill="url(#paint35_linear_1596_32396)"/>
<defs>
<linearGradient id="paint0_linear_1596_32396" x1="13.2538" y1="5.93106" x2="48.6719" y2="123.777" gradientUnits="userSpaceOnUse">
<stop stop-color="#B1B8BC" stop-opacity="0"/>
<stop offset="1" stop-color="#B1B8BC" stop-opacity="0.5"/>
</linearGradient>
<linearGradient id="paint1_linear_1596_32396" x1="98.6175" y1="25.0799" x2="123.844" y2="104.92" gradientUnits="userSpaceOnUse">
<stop stop-color="#B1B8BC" stop-opacity="0"/>
<stop offset="1" stop-color="#B1B8BC" stop-opacity="0.5"/>
</linearGradient>
<linearGradient id="paint2_linear_1596_32396" x1="123.189" y1="0.954032" x2="139.24" y2="67.526" gradientUnits="userSpaceOnUse">
<stop stop-color="#B1B8BC" stop-opacity="0"/>
<stop offset="1" stop-color="#B1B8BC" stop-opacity="0.5"/>
</linearGradient>
<linearGradient id="paint3_linear_1596_32396" x1="37.0573" y1="82.1217" x2="92.1032" y2="215.55" gradientUnits="userSpaceOnUse">
<stop stop-color="#B1B8BC" stop-opacity="0"/>
<stop offset="1" stop-color="#B1B8BC" stop-opacity="0.5"/>
</linearGradient>
<linearGradient id="paint4_linear_1596_32396" x1="162.549" y1="109.242" x2="193.138" y2="164.614" gradientUnits="userSpaceOnUse">
<stop stop-color="#B1B8BC" stop-opacity="0"/>
<stop offset="1" stop-color="#B1B8BC" stop-opacity="0.5"/>
</linearGradient>
<linearGradient id="paint5_linear_1596_32396" x1="122.367" y1="131.435" x2="152.953" y2="186.807" gradientUnits="userSpaceOnUse">
<stop stop-color="#B1B8BC" stop-opacity="0"/>
<stop offset="1" stop-color="#B1B8BC" stop-opacity="0.5"/>
</linearGradient>
<linearGradient id="paint6_linear_1596_32396" x1="88.2306" y1="73.6211" x2="111.925" y2="198.343" gradientUnits="userSpaceOnUse">
<stop offset="0.14" stop-color="#B1B8BC" stop-opacity="0.5"/>
<stop offset="1" stop-color="#B1B8BC"/>
</linearGradient>
<linearGradient id="paint7_linear_1596_32396" x1="83.4612" y1="39.8435" x2="96.7073" y2="159.459" gradientUnits="userSpaceOnUse">
<stop stop-color="#B1B8BC" stop-opacity="0"/>
<stop offset="1" stop-color="#B1B8BC" stop-opacity="0.5"/>
</linearGradient>
<linearGradient id="paint8_linear_1596_32396" x1="75.7803" y1="35.5408" x2="78.4544" y2="91.3943" gradientUnits="userSpaceOnUse">
<stop offset="0.14" stop-color="#B1B8BC" stop-opacity="0.5"/>
<stop offset="1" stop-color="#B1B8BC"/>
</linearGradient>
<linearGradient id="paint9_linear_1596_32396" x1="199.072" y1="74.8248" x2="211.555" y2="184.749" gradientUnits="userSpaceOnUse">
<stop offset="0.14" stop-color="#B1B8BC" stop-opacity="0.5"/>
<stop offset="1" stop-color="#B1B8BC"/>
</linearGradient>
<linearGradient id="paint10_linear_1596_32396" x1="180.344" y1="-3.2414" x2="201.743" y2="111.278" gradientUnits="userSpaceOnUse">
<stop stop-color="#B1B8BC" stop-opacity="0"/>
<stop offset="1" stop-color="#B1B8BC" stop-opacity="0.5"/>
</linearGradient>
<linearGradient id="paint11_linear_1596_32396" x1="50.6144" y1="55.4063" x2="106.802" y2="208.849" gradientUnits="userSpaceOnUse">
<stop offset="0.14" stop-color="#B1B8BC" stop-opacity="0.5"/>
<stop offset="1" stop-color="#B1B8BC"/>
</linearGradient>
<linearGradient id="paint12_linear_1596_32396" x1="131.635" y1="25.7392" x2="187.823" y2="179.185" gradientUnits="userSpaceOnUse">
<stop offset="0.14" stop-color="#B1B8BC" stop-opacity="0.5"/>
<stop offset="1" stop-color="#B1B8BC"/>
</linearGradient>
<linearGradient id="paint13_linear_1596_32396" x1="163.08" y1="14.2219" x2="219.268" y2="167.665" gradientUnits="userSpaceOnUse">
<stop offset="0.14" stop-color="#B1B8BC" stop-opacity="0.5"/>
<stop offset="1" stop-color="#B1B8BC"/>
</linearGradient>
<linearGradient id="paint14_linear_1596_32396" x1="167.252" y1="12.696" x2="223.44" y2="166.139" gradientUnits="userSpaceOnUse">
<stop offset="0.14" stop-color="#B1B8BC" stop-opacity="0.5"/>
<stop offset="1" stop-color="#B1B8BC"/>
</linearGradient>
<linearGradient id="paint15_linear_1596_32396" x1="20.233" y1="80.1114" x2="87.051" y2="149.811" gradientUnits="userSpaceOnUse">
<stop stop-color="#B1B8BC" stop-opacity="0"/>
<stop offset="1" stop-color="#B1B8BC" stop-opacity="0.5"/>
</linearGradient>
<linearGradient id="paint16_linear_1596_32396" x1="83.085" y1="96.8654" x2="37.7012" y2="153.532" gradientUnits="userSpaceOnUse">
<stop offset="0.14" stop-color="#B1B8BC" stop-opacity="0.5"/>
<stop offset="1" stop-color="#B1B8BC"/>
</linearGradient>
<linearGradient id="paint17_linear_1596_32396" x1="91.4014" y1="109.417" x2="110.893" y2="202.003" gradientUnits="userSpaceOnUse">
<stop offset="0.14" stop-color="#B1B8BC" stop-opacity="0.5"/>
<stop offset="1" stop-color="#B1B8BC"/>
</linearGradient>
<linearGradient id="paint18_linear_1596_32396" x1="131.273" y1="21.4788" x2="122.61" y2="104.112" gradientUnits="userSpaceOnUse">
<stop stop-color="#B1B8BC" stop-opacity="0"/>
<stop offset="1" stop-color="#B1B8BC" stop-opacity="0.5"/>
</linearGradient>
<linearGradient id="paint19_linear_1596_32396" x1="83.9667" y1="77.2321" x2="158.968" y2="136.737" gradientUnits="userSpaceOnUse">
<stop offset="0.14" stop-color="#B1B8BC" stop-opacity="0.5"/>
<stop offset="1" stop-color="#B1B8BC"/>
</linearGradient>
<linearGradient id="paint20_linear_1596_32396" x1="196.626" y1="48.5489" x2="148.918" y2="83.2857" gradientUnits="userSpaceOnUse">
<stop offset="0.14" stop-color="#B1B8BC" stop-opacity="0.5"/>
<stop offset="1" stop-color="#B1B8BC"/>
</linearGradient>
<linearGradient id="paint21_linear_1596_32396" x1="190.05" y1="203.657" x2="157.938" y2="135.535" gradientUnits="userSpaceOnUse">
<stop offset="0.14" stop-color="#B1B8BC" stop-opacity="0.5"/>
<stop offset="1" stop-color="#B1B8BC"/>
</linearGradient>
<linearGradient id="paint22_linear_1596_32396" x1="138.586" y1="56.5325" x2="162.79" y2="153.458" gradientUnits="userSpaceOnUse">
<stop offset="0.14" stop-color="#B1B8BC" stop-opacity="0.5"/>
<stop offset="1" stop-color="#B1B8BC"/>
</linearGradient>
<linearGradient id="paint23_linear_1596_32396" x1="147.846" y1="101.86" x2="173.072" y2="168.699" gradientUnits="userSpaceOnUse">
<stop stop-color="#B1B8BC" stop-opacity="0"/>
<stop offset="1" stop-color="#B1B8BC" stop-opacity="0.5"/>
</linearGradient>
<linearGradient id="paint24_linear_1596_32396" x1="151.627" y1="109.207" x2="161.818" y2="154.097" gradientUnits="userSpaceOnUse">
<stop offset="0.14" stop-color="#B1B8BC" stop-opacity="0.5"/>
<stop offset="1" stop-color="#B1B8BC"/>
</linearGradient>
<linearGradient id="paint25_linear_1596_32396" x1="29.0256" y1="53.0488" x2="111.975" y2="249.365" gradientUnits="userSpaceOnUse">
<stop offset="0.14" stop-color="#B1B8BC" stop-opacity="0.5"/>
<stop offset="1" stop-color="#B1B8BC"/>
</linearGradient>
<linearGradient id="paint26_linear_1596_32396" x1="43.1669" y1="47.0682" x2="126.119" y2="243.387" gradientUnits="userSpaceOnUse">
<stop offset="0.14" stop-color="#B1B8BC" stop-opacity="0.5"/>
<stop offset="1" stop-color="#B1B8BC"/>
</linearGradient>
<linearGradient id="paint27_linear_1596_32396" x1="88.3819" y1="27.9666" x2="171.334" y2="224.283" gradientUnits="userSpaceOnUse">
<stop offset="0.14" stop-color="#B1B8BC" stop-opacity="0.5"/>
<stop offset="1" stop-color="#B1B8BC"/>
</linearGradient>
<linearGradient id="paint28_linear_1596_32396" x1="102.812" y1="21.8684" x2="185.761" y2="218.185" gradientUnits="userSpaceOnUse">
<stop offset="0.14" stop-color="#B1B8BC" stop-opacity="0.5"/>
<stop offset="1" stop-color="#B1B8BC"/>
</linearGradient>
<linearGradient id="paint29_linear_1596_32396" x1="138.716" y1="6.6952" x2="221.667" y2="203.014" gradientUnits="userSpaceOnUse">
<stop offset="0.14" stop-color="#B1B8BC" stop-opacity="0.5"/>
<stop offset="1" stop-color="#B1B8BC"/>
</linearGradient>
<linearGradient id="paint30_linear_1596_32396" x1="126.376" y1="11.9121" x2="209.325" y2="208.231" gradientUnits="userSpaceOnUse">
<stop offset="0.14" stop-color="#B1B8BC" stop-opacity="0.5"/>
<stop offset="1" stop-color="#B1B8BC"/>
</linearGradient>
<linearGradient id="paint31_linear_1596_32396" x1="124.389" y1="15.3605" x2="124.389" y2="79.542" gradientUnits="userSpaceOnUse">
<stop stop-color="#B1B8BC" stop-opacity="0.1"/>
<stop offset="1" stop-color="#B1B8BC" stop-opacity="0.25"/>
</linearGradient>
<linearGradient id="paint32_linear_1596_32396" x1="15.3606" y1="100.754" x2="15.3606" y2="143.287" gradientUnits="userSpaceOnUse">
<stop stop-color="#B1B8BC" stop-opacity="0.1"/>
<stop offset="1" stop-color="#B1B8BC" stop-opacity="0.25"/>
</linearGradient>
<linearGradient id="paint33_linear_1596_32396" x1="237.803" y1="100.382" x2="237.803" y2="141.738" gradientUnits="userSpaceOnUse">
<stop stop-color="#B1B8BC" stop-opacity="0.1"/>
<stop offset="1" stop-color="#B1B8BC" stop-opacity="0.25"/>
</linearGradient>
<linearGradient id="paint34_linear_1596_32396" x1="125.019" y1="179.649" x2="125.019" y2="236.126" gradientUnits="userSpaceOnUse">
<stop stop-color="#B1B8BC" stop-opacity="0.1"/>
<stop offset="1" stop-color="#B1B8BC" stop-opacity="0.25"/>
</linearGradient>
<linearGradient id="paint35_linear_1596_32396" x1="194.199" y1="134.489" x2="194.199" y2="136.394" gradientUnits="userSpaceOnUse">
<stop stop-color="#B1B8BC" stop-opacity="0.1"/>
<stop offset="1" stop-color="#B1B8BC" stop-opacity="0.25"/>
</linearGradient>
</defs>
</svg>
