<svg width="16" height="16" viewBox="0 0 16 16" fill="none" xmlns="http://www.w3.org/2000/svg">
<path d="M14.305 1.63676C14.2275 1.56987 14.1333 1.52538 14.0324 1.50808C13.9315 1.49079 13.8278 1.50136 13.7325 1.53864L1.06626 6.49551C0.886746 6.56531 0.73477 6.69154 0.633208 6.85519C0.531646 7.01884 0.485995 7.21105 0.503127 7.40289C0.52026 7.59473 0.599248 7.77582 0.728201 7.91888C0.857155 8.06194 1.02909 8.15925 1.21813 8.19614L4.50001 8.84051V12.4999C4.49936 12.6992 4.55859 12.8941 4.67003 13.0594C4.78147 13.2247 4.93997 13.3526 5.12501 13.4268C5.30975 13.5022 5.51292 13.5203 5.70809 13.4787C5.90327 13.4372 6.08142 13.3378 6.21938 13.1936L7.80188 11.5524L10.3125 13.7499C10.4936 13.9106 10.7273 13.9995 10.9694 13.9999C11.0755 13.9998 11.1809 13.9831 11.2819 13.9505C11.4468 13.8982 11.5952 13.8035 11.7122 13.676C11.8292 13.5485 11.9108 13.3925 11.9488 13.2236L14.4856 2.18739C14.5083 2.08785 14.5035 1.98402 14.4717 1.88702C14.4399 1.79002 14.3822 1.70351 14.305 1.63676ZM10.4838 3.88676L4.88438 7.89676L1.78438 7.28864L10.4838 3.88676ZM5.50001 12.4999V9.53239L7.04938 10.8911L5.50001 12.4999ZM10.9706 12.9999L5.80313 8.46864L13.2406 3.13801L10.9706 12.9999Z" fill="white"/>
</svg>
