<svg width="16" height="16" viewBox="0 0 16 16" fill="none" xmlns="http://www.w3.org/2000/svg">
<path fill-rule="evenodd" clip-rule="evenodd" d="M8 16C12.4183 16 16 12.4183 16 8C16 3.58172 12.4183 0 8 0C3.58172 0 0 3.58172 0 8C0 9.4348 0.377714 10.7814 1.03913 11.9457L0 16L4.17992 15.0307C5.31509 15.6488 6.61651 16 8 16ZM8 14.7693C11.7386 14.7693 14.7693 11.7386 14.7693 8C14.7693 4.26146 11.7386 1.23077 8 1.23077C4.26146 1.23077 1.23077 4.26146 1.23077 8C1.23077 9.44349 1.68257 10.7814 2.45248 11.8801L1.84615 14.1538L4.15996 13.5754C5.25109 14.3283 6.57406 14.7693 8 14.7693Z" fill="#F2F2F3"/>
<path d="M6 4.286C5.80983 3.90395 5.518 3.93778 5.22326 3.93778C4.69646 3.93778 3.875 4.56879 3.875 5.74319C3.875 6.70565 4.29911 7.75925 5.72823 9.33525C7.10743 10.8563 8.91966 11.6431 10.4241 11.6163C11.9286 11.5895 12.2381 10.2949 12.2381 9.85765C12.2381 9.66388 12.1178 9.56719 12.035 9.54091C11.5223 9.29491 10.5767 8.83645 10.3616 8.75028C10.1465 8.66417 10.0341 8.78068 9.96429 8.84405C9.7692 9.02999 9.38246 9.57794 9.25 9.70119C9.1176 9.82445 8.92017 9.76205 8.838 9.71548C8.53566 9.59417 7.71594 9.22954 7.06257 8.59611C6.25446 7.81279 6.20703 7.54331 6.0548 7.30337C5.93303 7.11148 6.0224 6.99371 6.06697 6.94222C6.24109 6.74137 6.48149 6.43119 6.58931 6.27708C6.69709 6.12297 6.61154 5.88891 6.56017 5.74319C6.33931 5.11634 6.15217 4.59165 6 4.286Z" fill="#F2F2F3"/>
</svg>
